<svg width="40" height="40" viewBox="0 0 40 40" fill="none" xmlns="http://www.w3.org/2000/svg">
<path d="M11.8761 27.4996C11.8255 27.4996 11.7749 27.4934 11.7236 27.4809L9.22361 26.8559C8.88861 26.7721 8.68548 26.4327 8.76861 26.0984C8.85173 25.764 9.19361 25.5609 9.52673 25.6434L12.0267 26.2684C12.3617 26.3521 12.5649 26.6915 12.4817 27.0259C12.4105 27.3102 12.1561 27.4996 11.8761 27.4996Z" fill="white"/>
<path d="M28.1244 27.4999C27.8444 27.4999 27.5901 27.3106 27.5188 27.0262C27.4351 26.6918 27.6388 26.3524 27.9738 26.2687L30.4738 25.6437C30.8094 25.5606 31.1482 25.7624 31.2319 26.0987C31.3157 26.4349 31.1119 26.7724 30.7769 26.8562L28.2769 27.4812C28.2257 27.4943 28.1751 27.4999 28.1244 27.4999Z" fill="white"/>
<path d="M22.5 27.5H16.875C16.53 27.5 16.25 27.2206 16.25 26.875C16.25 26.5294 16.53 26.25 16.875 26.25H22.5C22.845 26.25 23.125 26.5294 23.125 26.875C23.125 27.2206 22.845 27.5 22.5 27.5Z" fill="white"/>
<path d="M30.625 30H28.75C28.405 30 28.125 29.7206 28.125 29.375C28.125 29.0294 28.405 28.75 28.75 28.75H30.625C30.97 28.75 31.25 29.0294 31.25 29.375C31.25 29.7206 30.97 30 30.625 30Z" fill="white"/>
<path d="M11.25 30H9.375C9.03 30 8.75 29.7206 8.75 29.375C8.75 29.0294 9.03 28.75 9.375 28.75H11.25C11.595 28.75 11.875 29.0294 11.875 29.375C11.875 29.7206 11.595 30 11.25 30Z" fill="white"/>
<path d="M35.1519 19.3931L32.6519 18.7681C32.3181 18.6838 31.9775 18.8875 31.8937 19.2231L31.3869 21.2494H8.95375L10.3825 16.2494H27.5006C27.8456 16.2494 28.1256 15.97 28.1256 15.6244C28.1256 15.2788 27.8456 14.9994 27.5006 14.9994H10.7506C11.0013 14.3231 11.7875 13.7494 12.5 13.7494H27.5C28.2475 13.7494 29.0837 14.38 29.29 15.1013L30.2994 18.5806C30.3956 18.9119 30.7419 19.1038 31.0737 19.0069C31.405 18.9113 31.5956 18.5644 31.5 18.2331L30.4912 14.7563C30.1294 13.4913 28.8156 12.5 27.5 12.5H12.5C11.1844 12.5 9.87063 13.4913 9.50875 14.7563L8.165 19.4594L8.10625 19.2238C8.0225 18.8888 7.6825 18.685 7.34812 18.7688L4.84812 19.3938C4.57 19.4631 4.375 19.7131 4.375 20V21.875C4.375 22.2206 4.655 22.5 5 22.5H6.57438C6.08188 23.1225 5.625 23.9731 5.625 25V35C5.625 36.0338 6.46625 36.875 7.5 36.875H11.25C12.2838 36.875 13.125 36.0338 13.125 35V34.375C13.125 34.0294 12.845 33.75 12.5 33.75C12.155 33.75 11.875 34.0294 11.875 34.375V35C11.875 35.345 11.5944 35.625 11.25 35.625H7.5C7.15563 35.625 6.875 35.345 6.875 35V33.125H33.125V35C33.125 35.345 32.8444 35.625 32.5 35.625H28.75C28.4056 35.625 28.125 35.345 28.125 35V34.375C28.125 34.0294 27.845 33.75 27.5 33.75C27.155 33.75 26.875 34.0294 26.875 34.375V35C26.875 36.0338 27.7162 36.875 28.75 36.875H32.5C33.5338 36.875 34.375 36.0338 34.375 35V25C34.375 23.9731 33.9181 23.1225 33.4256 22.5H35C35.345 22.5 35.625 22.2206 35.625 21.875V20C35.625 19.7131 35.4294 19.4631 35.1519 19.3931ZM5.625 21.2494V20.4875L7.045 20.1325L7.32437 21.2494H5.625ZM33.125 31.8744H26.0481L25.42 30.3031C25.0719 29.4312 24.0637 28.7494 23.1256 28.7494H18.7506C18.4056 28.7494 18.1256 29.0287 18.1256 29.3744C18.1256 29.72 18.4056 29.9994 18.7506 29.9994H23.1256C23.5581 29.9994 24.0987 30.3656 24.2594 30.7675L24.7025 31.8744H15.2987L15.7419 30.7675C15.9025 30.3656 16.4431 29.9994 16.8756 29.9994C17.2206 29.9994 17.5006 29.72 17.5006 29.3744C17.5006 29.0287 17.2206 28.7494 16.8756 28.7494C15.9375 28.7494 14.9294 29.4319 14.5813 30.3031L13.9525 31.8744H6.875V24.9994C6.875 23.7606 7.94125 22.8063 8.33125 22.4994H31.6687C32.06 22.8075 33.125 23.7613 33.125 24.9994V31.8744ZM34.375 21.2494H32.6756L32.955 20.1325L34.375 20.4875V21.2494Z" fill="white"/>
<path d="M4.375 15.625C4.03 15.625 3.75 15.3456 3.75 15C3.75 13.2769 2.34812 11.875 0.625 11.875C0.28 11.875 0 11.5956 0 11.25C0 10.9044 0.28 10.625 0.625 10.625C2.34812 10.625 3.75 9.22312 3.75 7.5C3.75 7.15438 4.03 6.875 4.375 6.875C4.72 6.875 5 7.15438 5 7.5C5 9.22312 6.40188 10.625 8.125 10.625C8.47 10.625 8.75 10.9044 8.75 11.25C8.75 11.5956 8.47 11.875 8.125 11.875C6.40188 11.875 5 13.2769 5 15C5 15.3456 4.72 15.625 4.375 15.625ZM2.87688 11.25C3.49 11.6194 4.00562 12.1356 4.375 12.7481C4.74438 12.1356 5.26063 11.6188 5.87313 11.25C5.26 10.8806 4.74438 10.3644 4.375 9.75187C4.00562 10.3644 3.48938 10.8812 2.87688 11.25Z" fill="white"/>
<path d="M36.875 18.75C36.53 18.75 36.25 18.4706 36.25 18.125C36.25 17.0912 35.4088 16.25 34.375 16.25C34.03 16.25 33.75 15.9706 33.75 15.625C33.75 15.2794 34.03 15 34.375 15C35.4088 15 36.25 14.1588 36.25 13.125C36.25 12.7794 36.53 12.5 36.875 12.5C37.22 12.5 37.5 12.7794 37.5 13.125C37.5 14.1588 38.3412 15 39.375 15C39.72 15 40 15.2794 40 15.625C40 15.9706 39.72 16.25 39.375 16.25C38.3412 16.25 37.5 17.0912 37.5 18.125C37.5 18.4706 37.22 18.75 36.875 18.75ZM36.2481 15.625C36.485 15.8031 36.6969 16.0144 36.875 16.2519C37.0531 16.0144 37.265 15.8031 37.5019 15.625C37.265 15.4469 37.0531 15.2356 36.875 14.9981C36.6969 15.2356 36.485 15.4469 36.2481 15.625Z" fill="white"/>
<path d="M11.875 9.375C11.53 9.375 11.25 9.09562 11.25 8.75C11.25 7.71625 10.4088 6.875 9.375 6.875C9.03 6.875 8.75 6.59562 8.75 6.25C8.75 5.90438 9.03 5.625 9.375 5.625C10.4088 5.625 11.25 4.78375 11.25 3.75C11.25 3.40438 11.53 3.125 11.875 3.125C12.22 3.125 12.5 3.40438 12.5 3.75C12.5 4.78375 13.3412 5.625 14.375 5.625C14.72 5.625 15 5.90438 15 6.25C15 6.59562 14.72 6.875 14.375 6.875C13.3412 6.875 12.5 7.71625 12.5 8.75C12.5 9.09562 12.22 9.375 11.875 9.375ZM11.2481 6.25C11.485 6.42812 11.6969 6.63938 11.875 6.87688C12.0531 6.63938 12.265 6.42812 12.5019 6.25C12.265 6.07188 12.0531 5.86062 11.875 5.62312C11.6969 5.86062 11.485 6.07188 11.2481 6.25Z" fill="white"/>
</svg>
