<svg width="40" height="40" viewBox="0 0 40 40" fill="none" xmlns="http://www.w3.org/2000/svg">
<path d="M23.5156 3.20312H3.98438C3.55297 3.20312 3.20312 3.55289 3.20312 3.98438V14.9219C3.20312 15.3534 3.55297 15.7031 3.98438 15.7031H34.4531C34.7691 15.7031 35.054 15.5127 35.1749 15.2209C35.2958 14.9289 35.2289 14.5929 35.0056 14.3695L24.0681 3.43195C23.9215 3.28547 23.7228 3.20312 23.5156 3.20312ZM23.192 4.76562L25.5357 7.10938H8.28125C7.19797 7.10938 6.32813 7.98789 6.32813 9.0625C6.32813 9.27789 6.15289 9.45312 5.9375 9.45312H4.76563V4.76562H23.192Z" fill="#9C9C9C"/>
<path d="M39.693 14.3695L26.3173 0.993672C25.7269 0.403281 24.942 0.078125 24.107 0.078125H3.20312C1.48 0.078125 0.078125 1.48 0.078125 3.20312V31.2984C0.078125 33.0216 1.48 34.4234 3.20312 34.4234H8.42562C8.58813 34.8428 8.67188 35.2876 8.67188 35.7336V39.1406C8.67188 39.572 9.02172 39.9219 9.45312 39.9219H21.9531C22.3845 39.9219 22.7344 39.572 22.7344 39.1406V34.4234H29.7656C30.197 34.4234 30.5469 34.0736 30.5469 33.6422C30.5469 28.7699 34.3477 24.664 39.1999 24.2946C39.6073 24.2637 39.9219 23.9241 39.9219 23.5156V14.9219C39.9219 14.7147 39.8395 14.5159 39.693 14.3695ZM20.4207 20.3907C19.8105 20.3819 19.2499 20.6089 18.8268 20.9882C17.936 20.1909 16.5934 20.1913 15.7031 20.9894C14.8127 20.1912 13.4698 20.191 12.5791 20.9885C12.163 20.6161 11.6141 20.3905 11.0161 20.3905C9.72281 20.3905 8.67188 21.469 8.67188 22.7773V27.1905C7.77961 26.3617 7.81961 26.394 7.76805 26.3537C7.56445 26.1953 7.34172 26.0759 7.10938 25.9939V18.8281H24.2969V26.6406H22.7344V22.775C22.7344 21.4764 21.6966 20.4069 20.4207 20.3907ZM5.70984 27.7253C5.97586 27.3865 6.44953 27.3267 6.78563 27.5697L8.92102 29.5564C9.14867 29.7681 9.47992 29.8248 9.76516 29.7007C10.0501 29.5766 10.2345 29.2954 10.2345 28.9845V22.7774C10.2345 22.3276 10.5811 21.9578 11.007 21.9531C11.4548 21.952 11.7969 22.309 11.7969 22.7344V28.9844C11.7969 29.4158 12.1467 29.7656 12.5781 29.7656C13.0095 29.7656 13.3594 29.4158 13.3594 28.9844V22.7344C13.3594 22.3036 13.7098 21.9531 14.1406 21.9531C14.5714 21.9531 14.9219 22.3036 14.9219 22.7344V28.9844C14.9219 29.4158 15.2717 29.7656 15.7031 29.7656C16.1345 29.7656 16.4844 29.4158 16.4844 28.9844V22.7344C16.4844 22.3036 16.8348 21.9531 17.2656 21.9531C17.6964 21.9531 18.0469 22.3036 18.0469 22.7344V28.9844C18.0469 29.4158 18.3967 29.7656 18.8281 29.7656C19.2595 29.7656 19.6094 29.4158 19.6094 28.9844V22.7344C19.6094 22.3066 19.9541 21.9509 20.401 21.953C20.8261 21.9584 21.1719 22.3271 21.1719 22.775V35.2344H10.2095C10.1034 34.1426 9.6543 33.1145 8.93508 32.298C5.79945 28.7511 5.95633 28.9037 5.84797 28.8196C5.50437 28.552 5.44891 28.0605 5.70984 27.7253ZM10.2344 38.3594V36.7969H21.1719V38.3594H10.2344ZM38.3594 22.8156C33.2949 23.5405 29.3764 27.7185 29.012 32.8609H22.7344V28.2031H25.0781C25.5095 28.2031 25.8594 27.8533 25.8594 27.4219V18.0469C25.8594 17.6154 25.5095 17.2656 25.0781 17.2656H6.32812C5.89672 17.2656 5.54688 17.6154 5.54688 18.0469V25.9937C5.14164 26.1368 4.76875 26.3936 4.47891 26.763C3.6918 27.7737 3.86805 29.2039 4.82562 30.0021L7.34805 32.8609H3.20312C2.34156 32.8609 1.64062 32.16 1.64062 31.2984V3.20312C1.64062 2.34156 2.34156 1.64062 3.20312 1.64062H24.107C24.5246 1.64062 24.9171 1.80328 25.2123 2.09852L38.3594 15.2455V22.8156Z" fill="#9C9C9C"/>
<path d="M29.7656 17.2656C28.4706 17.2656 27.4219 18.3145 27.4219 19.6094C27.4219 20.9017 28.4733 21.9531 29.7656 21.9531H34.4531C35.748 21.9531 36.7969 20.9043 36.7969 19.6094C36.7969 18.317 35.7455 17.2656 34.4531 17.2656H29.7656ZM35.2344 19.6094C35.2344 20.0407 34.8844 20.3906 34.4531 20.3906H29.7656C29.3348 20.3906 28.9844 20.0402 28.9844 19.6094C28.9844 19.178 29.3343 18.8281 29.7656 18.8281H34.4531C34.8839 18.8281 35.2344 19.1786 35.2344 19.6094Z" fill="#9C9C9C"/>
</svg>
