<svg width="65" height="72" viewBox="0 0 65 72" fill="none" xmlns="http://www.w3.org/2000/svg">
<path d="M32.4987 6C29.6255 6 26.87 7.26428 24.8384 9.51472C22.8067 11.7652 21.6654 14.8174 21.6654 18C21.6654 21.1826 22.8067 24.2348 24.8384 26.4853C26.87 28.7357 29.6255 30 32.4987 30C35.3719 30 38.1274 28.7357 40.159 26.4853C42.1907 24.2348 43.332 21.1826 43.332 18C43.332 14.8174 42.1907 11.7652 40.159 9.51472C38.1274 7.26428 35.3719 6 32.4987 6ZM46.0404 36H18.957C16.8021 36 14.7355 36.9482 13.2118 38.636C11.6881 40.3239 10.832 42.6131 10.832 45C10.832 51.696 13.3183 57.06 17.397 60.69C21.4108 64.26 26.7949 66 32.4987 66C38.2024 66 43.5866 64.26 47.6004 60.69C51.6737 57.06 54.1654 51.696 54.1654 45C54.1654 42.6131 53.3093 40.3239 51.7856 38.636C50.2619 36.9482 48.1952 36 46.0404 36Z" fill="#2A3167"/>
</svg>
