<svg width="20" height="20" viewBox="0 0 20 20" fill="none" xmlns="http://www.w3.org/2000/svg">
<path d="M19.25 9.99794H6.895M2.534 9.99794H0.75M2.534 9.99794C2.534 9.41977 2.76368 8.86527 3.17251 8.45644C3.58134 8.04762 4.13583 7.81794 4.714 7.81794C5.29217 7.81794 5.84666 8.04762 6.25549 8.45644C6.66432 8.86527 6.894 9.41977 6.894 9.99794C6.894 10.5761 6.66432 11.1306 6.25549 11.5394C5.84666 11.9483 5.29217 12.1779 4.714 12.1779C4.13583 12.1779 3.58134 11.9483 3.17251 11.5394C2.76368 11.1306 2.534 10.5761 2.534 9.99794ZM19.25 16.6049H13.502M13.502 16.6049C13.502 17.1832 13.2718 17.7384 12.8628 18.1473C12.4539 18.5562 11.8993 18.7859 11.321 18.7859C10.7428 18.7859 10.1883 18.5553 9.77951 18.1464C9.37068 17.7376 9.141 17.1831 9.141 16.6049M13.502 16.6049C13.502 16.0266 13.2718 15.4725 12.8628 15.0636C12.4539 14.6547 11.8993 14.4249 11.321 14.4249C10.7428 14.4249 10.1883 14.6546 9.77951 15.0634C9.37068 15.4723 9.141 16.0268 9.141 16.6049M9.141 16.6049H0.75M19.25 3.39094H16.145M11.784 3.39094H0.75M11.784 3.39094C11.784 2.81277 12.0137 2.25827 12.4225 1.84944C12.8313 1.44062 13.3858 1.21094 13.964 1.21094C14.2503 1.21094 14.5338 1.26732 14.7983 1.37688C15.0627 1.48644 15.3031 1.64701 15.5055 1.84944C15.7079 2.05188 15.8685 2.2922 15.9781 2.55669C16.0876 2.82118 16.144 3.10466 16.144 3.39094C16.144 3.67722 16.0876 3.9607 15.9781 4.22519C15.8685 4.48968 15.7079 4.73 15.5055 4.93243C15.3031 5.13486 15.0627 5.29544 14.7983 5.40499C14.5338 5.51455 14.2503 5.57094 13.964 5.57094C13.3858 5.57094 12.8313 5.34126 12.4225 4.93243C12.0137 4.5236 11.784 3.96911 11.784 3.39094Z" stroke="#2CB4B7" stroke-width="1.5" stroke-miterlimit="10" stroke-linecap="round"/>
</svg>
