<svg width="24" height="24" viewBox="0 0 24 24" fill="none" xmlns="http://www.w3.org/2000/svg">
<path d="M17.0481 20.9974C17.1774 20.9697 17.2957 20.9469 17.4125 20.9184C18.0118 20.7718 18.5648 20.5255 19.0717 20.1756C19.9095 19.5974 20.4342 18.8098 20.6985 17.8432C20.8495 17.2909 20.9249 16.7281 20.9446 16.1574C20.951 15.9685 20.9534 15.7794 20.9534 15.5904C20.9538 10.4262 20.9537 5.26217 20.9537 0.0980053V0H23.9963C23.9975 0.015924 23.9998 0.0319929 23.9998 0.0480617C23.9998 5.28997 23.9998 10.5319 23.9998 15.7738C23.9998 16.3058 23.9733 16.8366 23.9018 17.364C23.7772 18.2818 23.5345 19.1666 23.1115 19.9974C22.7502 20.7072 22.2897 21.3472 21.7122 21.9028C21.065 22.5254 20.3141 22.9911 19.4827 23.3354C18.8215 23.6091 18.1348 23.7947 17.426 23.894C17.0704 23.9438 16.7111 23.9761 16.3523 23.9944C16.0596 24.0093 15.7652 23.9909 15.4715 23.9884C15.4376 23.9881 15.4254 23.9751 15.4265 23.9438C15.4272 23.925 15.4265 23.906 15.4265 23.8871C15.4265 23.183 15.4265 22.4788 15.4265 21.7748V14.726C15.4265 10.9072 15.4276 7.08837 15.4253 3.26964C15.4248 2.63051 15.1243 2.15814 14.563 1.84762C14.3455 1.72732 14.1051 1.67362 13.8569 1.67333C11.6261 1.67145 9.39517 1.6671 7.16436 1.67507C6.40373 1.67782 5.67481 1.8498 4.9814 2.16234C4.33333 2.45447 3.75541 2.84563 3.25527 3.34695C2.7952 3.80816 2.42978 4.33409 2.14978 4.91894C1.9135 5.41273 1.75017 5.92867 1.67958 6.4698C1.64509 6.7337 1.62293 7.00108 1.6222 7.26701C1.6175 9.24058 1.6197 11.2141 1.61955 13.1877C1.61955 13.2904 1.63276 13.2818 1.52343 13.282C1.29112 13.2822 1.05895 13.2825 0.826643 13.282C0.369064 13.2808 0.00247254 12.9186 0.00247254 12.4678C0.00247254 10.7128 -0.00442489 8.95771 0.00482061 7.20274C0.0109843 6.05374 0.287029 4.9657 0.82679 3.94482C1.13894 3.35447 1.52226 2.8145 1.98571 2.32969C2.72696 1.55433 3.6047 0.979039 4.6057 0.582675C5.16601 0.360752 5.74525 0.210342 6.34401 0.139697C6.62886 0.106112 6.91693 0.0829498 7.20369 0.082226C9.42804 0.0775935 11.6524 0.0751326 13.8767 0.0820812C14.7156 0.084687 15.436 0.393903 16.0396 0.968472C16.3369 1.25149 16.5807 1.57185 16.7559 1.9423C16.9283 2.30725 17.0149 2.69232 17.0389 3.09231C17.0446 3.18857 17.0478 3.28513 17.0478 3.38154C17.0482 7.00716 17.0482 10.6328 17.0482 14.2584V20.9972L17.0481 20.9974Z" fill="#E82343"/>
<path d="M13.7957 23.977C13.4777 23.977 13.1721 23.995 12.8696 23.9724C12.5009 23.945 12.1823 23.5562 12.183 23.2038C12.1884 20.3811 12.1865 17.5583 12.1859 14.7356C12.1852 11.4798 12.1836 8.22422 12.1823 4.96848C12.1823 4.90507 12.1494 4.87332 12.0838 4.87322C10.4771 4.87322 8.8706 4.86917 7.26409 4.8751C6.61279 4.87757 6.05307 5.11396 5.58904 5.56896C5.23947 5.9119 5.00217 6.31507 4.91529 6.7954C4.88403 6.9681 4.86892 7.14602 4.86862 7.32147C4.86525 9.03866 4.86657 10.7559 4.86657 12.473C4.86657 12.9078 4.5258 13.2648 4.08525 13.2795C3.81918 13.2885 3.55268 13.2813 3.28632 13.2811C3.2781 13.2811 3.26974 13.2788 3.25477 13.2765C3.25345 13.2542 3.25081 13.2319 3.25081 13.2096C3.25066 11.2255 3.24861 9.24133 3.25169 7.2572C3.25271 6.54221 3.4118 5.86341 3.78954 5.247C4.26678 4.46817 4.92498 3.89027 5.78672 3.55066C6.23828 3.37274 6.71053 3.28516 7.19643 3.28458C9.36766 3.28227 11.5389 3.28357 13.7101 3.28357C13.7671 3.28357 13.7957 3.31262 13.7958 3.37072C13.7958 6.99011 13.7958 10.6095 13.7958 14.2287C13.7958 16.5237 13.7958 18.8185 13.7958 21.1134C13.7958 22.0401 13.7958 22.9666 13.7958 23.8932V23.9766L13.7957 23.977Z" fill="#E82343"/>
<path d="M9.48154 18.4381C9.4789 20.4097 7.91274 21.9721 5.95842 22.0191C3.94363 22.0676 2.29925 20.5107 2.2586 18.5416C2.21707 16.532 3.81904 14.9153 5.84087 14.8947C7.831 14.8745 9.45777 16.4577 9.48169 18.4381H9.48154Z" fill="#E82343"/>
</svg>
