<svg width="34" height="34" viewBox="0 0 34 34" fill="none" xmlns="http://www.w3.org/2000/svg">
<rect width="34" height="34" rx="6" fill="white"/>
<path d="M14.6515 24.5003L14.9015 24.8337C16.0265 26.3337 18.2765 26.3337 19.4015 24.8337L19.6515 24.5003M10.6372 19.9583L10.7233 20.1359C11.2765 21.2762 12.4325 22.0003 13.6999 22.0003H20.5506C21.6367 22.0003 22.6475 21.4455 23.2306 20.5292C24.0538 19.2358 23.8358 17.5391 22.7124 16.4958L22.6758 16.4618C21.9131 15.7535 21.5375 14.7215 21.6667 13.6886L21.7205 13.2579C22.0252 10.8202 20.1244 8.66699 17.6678 8.66699H16.2487C13.795 8.66699 11.8965 10.8175 12.2009 13.2523L12.267 13.7813C12.3888 14.7556 12.0329 15.7287 11.3113 16.3946C10.3257 17.3041 10.0519 18.7517 10.6372 19.9583Z" stroke="#D83C47" stroke-width="1.5" stroke-linecap="round"/>
</svg>
